<svg id="Layer_1" data-name="Layer 1" xmlns="http://www.w3.org/2000/svg" xmlns:xlink="http://www.w3.org/1999/xlink" viewBox="0 0 456.64 98.78"><defs><style>.cls-1{fill:url(#New_Gradient_Swatch_1);}.cls-2{fill:#fff;}.cls-3{fill:#677d9d;}</style><linearGradient id="New_Gradient_Swatch_1" x1="1541.01" y1="1064.51" x2="1541.01" y2="1178.37" gradientUnits="userSpaceOnUse"><stop offset="0" stop-color="#43e9ff"/><stop offset="1" stop-color="#4fa3ff"/></linearGradient></defs><title>xchangerate-logo</title><path class="cls-1" d="M1577.78,1110.55l-31.14-16.06a11.28,11.28,0,0,0-11.28,0l-31.14,16.06a11.28,11.28,0,0,0-5.64,9.77v44.12a11.28,11.28,0,0,0,5.64,9.77l31.14,16.06a11.28,11.28,0,0,0,11.28,0l31.14-16.06a11.28,11.28,0,0,0,5.64-9.77v-44.12A11.28,11.28,0,0,0,1577.78,1110.55Z" transform="translate(-1498.6 -1092.98)"/><path class="cls-2" d="M1561.2,1148.3a13.05,13.05,0,0,0,6.66-11.59,13.72,13.72,0,0,0-4.73-10.52c-2.87-2.41-6.32-3.41-12-3.46h-13.25l-5.1,8.15h0l-11.93,18.7h0l-8.74,13.78h8.9l7.81-12.46,4.19,6.72,3.57,5.74h9L1533.27,1144l8.86-14.05h9.16c3.4,0,5.4.47,6.79,1.73a6.5,6.5,0,0,1,2.06,4.93c0,4.22-2.43,6.36-7.67,6.63h-3.71l1.24,1.86,3.43,5.23h0l8.63,13.06h8.95Z" transform="translate(-1498.6 -1092.98)"/><polygon class="cls-2" points="27.13 39.09 21.28 29.74 12.36 29.74 22.63 46.09 27.13 39.09"/><path class="cls-3" d="M1641.22,1163q-1.76-3.47-3.84-7a25.45,25.45,0,0,0-4.8-6q-0.84.93-2.13,2.58t-2.58,3.51q-1.29,1.86-2.41,3.85t-1.67,3.13h-10.68a108.62,108.62,0,0,1,6.2-10.06q3.57-5.19,8-11l-13.57-20.51h11.34l7.92,12,8.1-12h10.68l-13.49,20.07a127.55,127.55,0,0,1,8.74,12.19q3.43,5.54,5.42,9.32h-11.2Z" transform="translate(-1498.6 -1092.98)"/><path class="cls-3" d="M1650.92,1147.24a18.59,18.59,0,0,1,1.11-6.45,15.1,15.1,0,0,1,8.31-8.85,16.83,16.83,0,0,1,6.84-1.32,22.1,22.1,0,0,1,4.62.45,22.57,22.57,0,0,1,4.08,1.29l-1.86,7.14a22.53,22.53,0,0,0-2.76-.84,14.42,14.42,0,0,0-3.36-.36,7.08,7.08,0,0,0-5.91,2.46,10.13,10.13,0,0,0-2,6.48,10.49,10.49,0,0,0,1.83,6.6q1.83,2.34,6.39,2.34a21.85,21.85,0,0,0,3.48-.3,14.75,14.75,0,0,0,3.42-1l1.26,7.32a21,21,0,0,1-3.9,1.14,25.74,25.74,0,0,1-5.16.48,19.42,19.42,0,0,1-7.44-1.29,14,14,0,0,1-5.13-3.51,13.68,13.68,0,0,1-2.94-5.25A22.27,22.27,0,0,1,1650.92,1147.24Z" transform="translate(-1498.6 -1092.98)"/><path class="cls-3" d="M1679.42,1163V1117.9l8.94-1.44v15.12a18.52,18.52,0,0,1,2.31-.57,14.48,14.48,0,0,1,2.73-.27,16.89,16.89,0,0,1,6.39,1,9.93,9.93,0,0,1,4.08,3,11.49,11.49,0,0,1,2.16,4.56,25.38,25.38,0,0,1,.63,5.88V1163h-8.94v-16.74q0-4.32-1.11-6.12t-4.11-1.8a11.49,11.49,0,0,0-2.25.21q-1.05.21-1.89,0.45v24h-8.94Z" transform="translate(-1498.6 -1092.98)"/><path class="cls-3" d="M1723.1,1130.62a20.7,20.7,0,0,1,6.6.9,10.26,10.26,0,0,1,4.23,2.58,9.5,9.5,0,0,1,2.25,4.08,20.15,20.15,0,0,1,.66,5.34v18.6q-1.92.42-5.34,1a51.32,51.32,0,0,1-8.28.57,26.26,26.26,0,0,1-5.55-.54,12,12,0,0,1-4.29-1.77,8.09,8.09,0,0,1-2.76-3.21,11.08,11.08,0,0,1-1-4.86,9.2,9.2,0,0,1,1.11-4.68,8.54,8.54,0,0,1,3-3.06,13.44,13.44,0,0,1,4.26-1.65,23.94,23.94,0,0,1,5-.51,28.5,28.5,0,0,1,3.09.15,13.93,13.93,0,0,1,2.19.39v-0.84a5,5,0,0,0-1.38-3.66q-1.38-1.38-4.8-1.38a30.59,30.59,0,0,0-4.5.33,19.34,19.34,0,0,0-3.84.93l-1.14-7.2q0.78-.24,2-0.51t2.55-.48q1.38-.21,2.91-0.36T1723.1,1130.62Zm0.72,26.16q1.32,0,2.52-.06a17.29,17.29,0,0,0,1.92-.18v-6.78q-0.54-.12-1.62-0.24a18.15,18.15,0,0,0-2-.12,17.86,17.86,0,0,0-2.37.15,6.22,6.22,0,0,0-2,.57,3.34,3.34,0,0,0-1.32,1.14,3.17,3.17,0,0,0-.48,1.8,3.07,3.07,0,0,0,1.41,2.91A7.79,7.79,0,0,0,1723.82,1156.78Z" transform="translate(-1498.6 -1092.98)"/><path class="cls-3" d="M1741.94,1132.54a49.9,49.9,0,0,1,5.88-1.23,48.33,48.33,0,0,1,7.56-.57,18.43,18.43,0,0,1,6.69,1,10.06,10.06,0,0,1,4.23,3,11.59,11.59,0,0,1,2.22,4.56,24.27,24.27,0,0,1,.66,5.88V1163h-8.94v-16.74q0-4.32-1.14-6.12t-4.26-1.8q-1,0-2,.09t-1.92.21V1163h-8.94v-30.48Z" transform="translate(-1498.6 -1092.98)"/><path class="cls-3" d="M1801.52,1159.06q0,7.74-3.93,11.49t-12.15,3.75a33,33,0,0,1-5.76-.51,36,36,0,0,1-5.34-1.35l1.56-7.5a26.3,26.3,0,0,0,4.41,1.32,26,26,0,0,0,5.25.48q3.84,0,5.43-1.68a6,6,0,0,0,1.59-4.32v-1.14a14.32,14.32,0,0,1-3,1,15.75,15.75,0,0,1-3.33.33q-6.54,0-10-3.87t-3.48-10.83a17.75,17.75,0,0,1,1.08-6.33A13.48,13.48,0,0,1,1777,1135a14.07,14.07,0,0,1,5.07-3.15,19.44,19.44,0,0,1,6.78-1.11q1.62,0,3.33.15t3.39,0.39q1.68,0.24,3.21.57t2.73,0.69v26.52Zm-19.62-12.84q0,7.5,6.06,7.5a8.93,8.93,0,0,0,2.58-.36,9.76,9.76,0,0,0,2-.84v-14.28q-0.66-.12-1.56-0.21t-2.1-.09a6.15,6.15,0,0,0-5.28,2.34A9.68,9.68,0,0,0,1781.89,1146.22Z" transform="translate(-1498.6 -1092.98)"/><path class="cls-3" d="M1805.41,1147.48a19.29,19.29,0,0,1,1.29-7.35,15.75,15.75,0,0,1,3.39-5.25,14.1,14.1,0,0,1,4.83-3.18,15.12,15.12,0,0,1,5.61-1.08q6.72,0,10.62,4.11t3.9,12.09q0,0.78-.06,1.71t-0.12,1.65h-20.28a5.94,5.94,0,0,0,2.58,4.38,10.37,10.37,0,0,0,6.12,1.62,25.86,25.86,0,0,0,4.83-.45,18.2,18.2,0,0,0,3.87-1.11l1.2,7.26a12.35,12.35,0,0,1-1.92.72,25.3,25.3,0,0,1-2.67.63q-1.47.27-3.15,0.45a31.64,31.64,0,0,1-3.36.18,19.89,19.89,0,0,1-7.41-1.26,14.42,14.42,0,0,1-5.22-3.45,13.69,13.69,0,0,1-3.06-5.19A20.55,20.55,0,0,1,1805.41,1147.48Zm21-3.42a9.3,9.3,0,0,0-.39-2.22,5.56,5.56,0,0,0-1-1.92,5.44,5.44,0,0,0-1.74-1.38,5.67,5.67,0,0,0-2.61-.54,6,6,0,0,0-2.58.51,5.34,5.34,0,0,0-1.8,1.35,6,6,0,0,0-1.11,2,12.77,12.77,0,0,0-.57,2.25h11.82Z" transform="translate(-1498.6 -1092.98)"/><path class="cls-3" d="M1851.73,1121q9.36,0,14.34,3.33t5,10.35a11.7,11.7,0,0,1-2,7.11,13.23,13.23,0,0,1-5.79,4.29q1.26,1.56,2.64,3.57t2.73,4.2q1.35,2.19,2.61,4.56t2.34,4.65h-10.46l-2.32-4.14q-1.17-2.1-2.41-4.08t-2.44-3.75q-1.21-1.77-2.41-3.21h-4.62V1163h-9.36v-41a53.2,53.2,0,0,1,6.33-.84Q1849.15,1121,1851.73,1121Zm0.54,8q-1,0-1.83.06l-1.53.12v11.28h2.64q5.28,0,7.56-1.32a4.77,4.77,0,0,0,2.28-4.5,4.58,4.58,0,0,0-2.31-4.35A14.29,14.29,0,0,0,1852.27,1128.94Z" transform="translate(-1498.6 -1092.98)"/><path class="cls-3" d="M1885.81,1130.62a20.71,20.71,0,0,1,6.6.9,10.26,10.26,0,0,1,4.23,2.58,9.49,9.49,0,0,1,2.25,4.08,20.15,20.15,0,0,1,.66,5.34v18.6q-1.92.42-5.34,1a51.31,51.31,0,0,1-8.28.57,26.27,26.27,0,0,1-5.55-.54,12,12,0,0,1-4.29-1.77,8.08,8.08,0,0,1-2.76-3.21,11.07,11.07,0,0,1-1-4.86,9.2,9.2,0,0,1,1.11-4.68,8.54,8.54,0,0,1,3-3.06,13.45,13.45,0,0,1,4.26-1.65,23.94,23.94,0,0,1,5-.51,28.5,28.5,0,0,1,3.09.15,14,14,0,0,1,2.19.39v-0.84a5,5,0,0,0-1.38-3.66q-1.38-1.38-4.8-1.38a30.61,30.61,0,0,0-4.5.33,19.35,19.35,0,0,0-3.84.93l-1.14-7.2q0.78-.24,2-0.51t2.55-.48q1.38-.21,2.91-0.36T1885.81,1130.62Zm0.72,26.16q1.32,0,2.52-.06a17.26,17.26,0,0,0,1.92-.18v-6.78q-0.54-.12-1.62-0.24a18.16,18.16,0,0,0-2-.12,17.85,17.85,0,0,0-2.37.15,6.23,6.23,0,0,0-2,.57,3.33,3.33,0,0,0-1.32,1.14,3.17,3.17,0,0,0-.48,1.8,3.06,3.06,0,0,0,1.41,2.91A7.79,7.79,0,0,0,1886.53,1156.78Z" transform="translate(-1498.6 -1092.98)"/><path class="cls-3" d="M1904.35,1123.6l8.94-1.44v9.3H1924v7.44h-10.74V1150a8.82,8.82,0,0,0,1,4.5q1,1.68,4,1.68a17.12,17.12,0,0,0,3-.27,15.28,15.28,0,0,0,2.79-.75l1.26,7a25.34,25.34,0,0,1-3.6,1.14,21,21,0,0,1-4.86.48,16,16,0,0,1-6.06-1,9.49,9.49,0,0,1-3.84-2.76,10.25,10.25,0,0,1-2-4.29,25.27,25.27,0,0,1-.57-5.58V1123.6Z" transform="translate(-1498.6 -1092.98)"/><path class="cls-3" d="M1925.59,1147.48a19.28,19.28,0,0,1,1.29-7.35,15.75,15.75,0,0,1,3.39-5.25,14.09,14.09,0,0,1,4.83-3.18,15.12,15.12,0,0,1,5.61-1.08q6.72,0,10.62,4.11t3.9,12.09q0,0.78-.06,1.71c0,0.62-.08,1.17-0.12,1.65h-20.28a5.94,5.94,0,0,0,2.58,4.38,10.37,10.37,0,0,0,6.12,1.62,25.86,25.86,0,0,0,4.83-.45,18.19,18.19,0,0,0,3.87-1.11l1.2,7.26a12.41,12.41,0,0,1-1.92.72,25.36,25.36,0,0,1-2.67.63q-1.47.27-3.15,0.45a31.63,31.63,0,0,1-3.36.18,19.88,19.88,0,0,1-7.41-1.26,14.42,14.42,0,0,1-5.22-3.45,13.69,13.69,0,0,1-3.06-5.19A20.55,20.55,0,0,1,1925.59,1147.48Zm21-3.42a9.3,9.3,0,0,0-.39-2.22,5.56,5.56,0,0,0-1-1.92,5.43,5.43,0,0,0-1.74-1.38,5.67,5.67,0,0,0-2.61-.54,6,6,0,0,0-2.58.51,5.34,5.34,0,0,0-1.8,1.35,6,6,0,0,0-1.11,2,12.77,12.77,0,0,0-.57,2.25h11.82Z" transform="translate(-1498.6 -1092.98)"/></svg>