<?xml version="1.0" encoding="UTF-8"?>
<svg width="40px" height="40px" viewBox="0 0 40 40" version="1.1" xmlns="http://www.w3.org/2000/svg" xmlns:xlink="http://www.w3.org/1999/xlink">
    <!-- Generator: Sketch 47.1 (45422) - http://www.bohemiancoding.com/sketch -->
    <title>icon_facebook</title>
    <desc>Created with Sketch.</desc>
    <defs></defs>
    <g id="Manual-Trading-via-Robot" stroke="none" stroke-width="1" fill="none" fill-rule="evenodd">
        <g id="13.2---Referral-page-Copy-2" transform="translate(-1017.000000, -345.000000)" fill="#3A589B">
            <g id="Assign-Manager-UI" transform="translate(20.000000, 188.000000)">
                <g id="Test-mode-buy" transform="translate(355.000000, 20.000000)">
                    <g id="social-media" transform="translate(592.000000, 137.000000)">
                        <g id="icon_facebook" transform="translate(50.000000, 0.000000)">
                            <path d="M17.1766667,30.88 L21.6726667,30.88 L21.6726667,19.9986667 L24.672,19.9986667 L25.0693333,16.2493333 L21.6726667,16.2493333 L21.6773333,14.372 C21.6773333,13.3946667 21.7706667,12.87 23.1733333,12.87 L25.048,12.87 L25.048,9.12 L22.048,9.12 C18.4446667,9.12 17.1766667,10.9393333 17.1766667,13.998 L17.1766667,16.2493333 L14.9306667,16.2493333 L14.9306667,19.9993333 L17.1766667,19.9993333 L17.1766667,30.88 L17.1766667,30.88 Z M20,40 C8.95466667,40 0,31.0453333 0,20 C0,8.954 8.95466667,0 20,0 C31.0453333,0 40,8.954 40,20 C40,31.0453333 31.0453333,40 20,40 Z" id="Shape"></path>
                        </g>
                    </g>
                </g>
            </g>
        </g>
    </g>
</svg>