<?xml version="1.0" encoding="UTF-8"?>
<svg width="21px" height="23px" viewBox="0 0 21 23" version="1.1" xmlns="http://www.w3.org/2000/svg" xmlns:xlink="http://www.w3.org/1999/xlink">
    <!-- Generator: Sketch 47.1 (45422) - http://www.bohemiancoding.com/sketch -->
    <title>bell-o</title>
    <desc>Created with Sketch.</desc>
    <defs></defs>
    <g id="Manual-Trading-via-Robot" stroke="none" stroke-width="1" fill="none" fill-rule="evenodd">
        <g id="12---Billing-history-_robot-notification" transform="translate(-1204.000000, -24.000000)" fill-rule="nonzero" fill="#4FA3FF">
            <g id="Notification" transform="translate(1089.000000, 15.000000)">
                <g id="Bell" transform="translate(104.000000, 0.000000)">
                    <g id="bell-o" transform="translate(11.000000, 9.000000)">
                        <path d="M10.7019231,21.7678571 C10.7019231,21.6523438 10.6135817,21.5625 10.5,21.5625 C9.50300481,21.5625 8.68269231,20.7282366 8.68269231,19.7142857 C8.68269231,19.5987723 8.59435096,19.5089286 8.48076923,19.5089286 C8.3671875,19.5089286 8.27884615,19.5987723 8.27884615,19.7142857 C8.27884615,20.9592634 9.27584135,21.9732143 10.5,21.9732143 C10.6135817,21.9732143 10.7019231,21.8833705 10.7019231,21.7678571 Z M2.296875,18.0714286 L18.703125,18.0714286 C16.4441106,15.4787946 15.3461538,11.9620536 15.3461538,7.39285714 C15.3461538,5.73716518 13.8064904,3.28571429 10.5,3.28571429 C7.19350962,3.28571429 5.65384615,5.73716518 5.65384615,7.39285714 C5.65384615,11.9620536 4.55588942,15.4787946 2.296875,18.0714286 Z M21,18.0714286 C21,18.9698661 20.2680288,19.7142857 19.3846154,19.7142857 L13.7307692,19.7142857 C13.7307692,21.5239955 12.2794471,23 10.5,23 C8.72055288,23 7.26923077,21.5239955 7.26923077,19.7142857 L1.61538462,19.7142857 C0.731971154,19.7142857 0,18.9698661 0,18.0714286 C1.86778846,16.4670759 4.03846154,13.5920759 4.03846154,7.39285714 C4.03846154,4.92857143 6.04507212,2.23325893 9.38942308,1.73270089 C9.32632212,1.57868304 9.28846154,1.41183036 9.28846154,1.23214286 C9.28846154,0.551897321 9.83112981,0 10.5,0 C11.1688702,0 11.7115385,0.551897321 11.7115385,1.23214286 C11.7115385,1.41183036 11.6736779,1.57868304 11.6105769,1.73270089 C14.9549279,2.23325893 16.9615385,4.92857143 16.9615385,7.39285714 C16.9615385,13.5920759 19.1322115,16.4670759 21,18.0714286 Z" id="Shape"></path>
                    </g>
                </g>
            </g>
        </g>
    </g>
</svg>