<svg xmlns="http://www.w3.org/2000/svg" width="33" height="36" viewBox="0 0 33 36">
    <path fill="#FFF" fill-rule="nonzero" d="M16.817 34.071a.315.315 0 0 0-.317-.321c-1.567 0-2.856-1.306-2.856-2.893a.315.315 0 0 0-.317-.321.315.315 0 0 0-.317.321c0 1.949 1.566 3.536 3.49 3.536.178 0 .317-.14.317-.322zM3.61 28.286h25.782c-3.55-4.058-5.276-9.563-5.276-16.715 0-2.591-2.42-6.428-7.615-6.428-5.196 0-7.615 3.837-7.615 6.428 0 7.152-1.726 12.657-5.276 16.715zm29.391 0c0 1.406-1.15 2.571-2.538 2.571h-8.885c0 2.833-2.28 5.143-5.077 5.143-2.796 0-5.077-2.31-5.077-5.143H2.538C1.15 30.857 0 29.692 0 28.286c2.935-2.511 6.346-7.011 6.346-16.715 0-3.857 3.153-8.075 8.409-8.859a2.045 2.045 0 0 1-.159-.783C14.596.864 15.45 0 16.5 0s1.904.864 1.904 1.929c0 .28-.06.542-.159.783 5.256.784 8.409 5.002 8.409 8.86 0 9.703 3.41 14.203 6.346 16.714z"/>
</svg>
