<?xml version="1.0" encoding="UTF-8"?>
<svg width="40px" height="40px" viewBox="0 0 40 40" version="1.1" xmlns="http://www.w3.org/2000/svg" xmlns:xlink="http://www.w3.org/1999/xlink">
    <!-- Generator: Sketch 47.1 (45422) - http://www.bohemiancoding.com/sketch -->
    <title>icon_twitter</title>
    <desc>Created with Sketch.</desc>
    <defs></defs>
    <g id="Manual-Trading-via-Robot" stroke="none" stroke-width="1" fill="none" fill-rule="evenodd">
        <g id="13.2---Referral-page-Copy-2" transform="translate(-967.000000, -345.000000)" fill="#5CA7FF">
            <g id="Assign-Manager-UI" transform="translate(20.000000, 188.000000)">
                <g id="Test-mode-buy" transform="translate(355.000000, 20.000000)">
                    <g id="social-media" transform="translate(592.000000, 137.000000)">
                        <g id="icon_twitter">
                            <path d="M22.778,12.1886667 C21.032,12.824 19.9286667,14.4626667 20.054,16.256 L20.096,16.948 L19.3973333,16.8633333 C16.8553333,16.5386667 14.634,15.4373333 12.748,13.5866667 L11.826,12.6686667 L11.5886667,13.3466667 C11.086,14.858 11.4073333,16.454 12.4546667,17.5273333 C13.0133333,18.1206667 12.8873333,18.2053333 11.924,17.852 C11.5886667,17.7393333 11.2953333,17.6546667 11.2673333,17.6966667 C11.17,17.796 11.5046667,19.0806667 11.77,19.5893333 C12.1333333,20.296 12.8733333,20.9873333 13.684,21.3973333 L14.3686667,21.722 L13.5586667,21.736 C12.7766667,21.736 12.7486667,21.75 12.8326667,22.0473333 C13.112,22.9653333 14.2153333,23.94 15.4446667,24.364 L16.3106667,24.66 L15.5566667,25.112 C14.4393333,25.7626667 13.126,26.1293333 11.8126667,26.1566667 C11.1833333,26.1706667 10.6666667,26.2273333 10.6666667,26.27 C10.6666667,26.4106667 12.3713333,27.2013333 13.3626667,27.5126667 C16.338,28.4306667 19.8726667,28.0346667 22.5266667,26.4673333 C24.4126667,25.3513333 26.298,23.134 27.1786667,20.9866667 C27.654,19.8433333 28.1286667,17.7526667 28.1286667,16.7506667 C28.1286667,16.1006667 28.1706667,16.016 28.9526667,15.2393333 C29.414,14.7873333 29.8466667,14.2933333 29.9306667,14.152 C30.0706667,13.8833333 30.056,13.8833333 29.344,14.1233333 C28.1566667,14.5473333 27.9886667,14.4906667 28.576,13.8553333 C29.0086667,13.4033333 29.526,12.584 29.526,12.344 C29.526,12.302 29.3166667,12.372 29.0786667,12.4993333 C28.8273333,12.6406667 28.2686667,12.8526667 27.8493333,12.9793333 L27.0953333,13.22 L26.4106667,12.7533333 C26.0333333,12.4993333 25.5033333,12.2166667 25.2233333,12.132 C24.5106667,11.9346667 23.4206667,11.9626667 22.778,12.1886667 Z M20,40 C8.95466667,40 0,31.0453333 0,20 C0,8.954 8.95466667,0 20,0 C31.0453333,0 40,8.954 40,20 C40,31.0453333 31.0453333,40 20,40 Z" id="Shape"></path>
                        </g>
                    </g>
                </g>
            </g>
        </g>
    </g>
</svg>