<?xml version="1.0" encoding="UTF-8"?>
<svg width="184px" height="41px" viewBox="0 0 184 41" version="1.1" xmlns="http://www.w3.org/2000/svg" xmlns:xlink="http://www.w3.org/1999/xlink">
    <!-- Generator: Sketch 47.1 (45422) - http://www.bohemiancoding.com/sketch -->
    <title>xchangerate-logo</title>
    <desc>Created with Sketch.</desc>
    <defs>
        <linearGradient x1="50.0117869%" y1="-28.8138216%" x2="50.0117869%" y2="86.426216%" id="linearGradient-1">
            <stop stop-color="#43E9FF" offset="0%"></stop>
            <stop stop-color="#4FA3FF" offset="100%"></stop>
        </linearGradient>
    </defs>
    <g id="Manual-Trading-via-Robot" stroke="none" stroke-width="1" fill="none" fill-rule="evenodd">
        <g id="10.2---Settings_robot" transform="translate(-20.000000, -15.000000)">
            <g id="Header">
                <g id="xchangerate-logo" transform="translate(20.000000, 15.000000)">
                    <g id="icon" fill-rule="nonzero">
                        <path d="M32.27245,7.428 L19.7386,1.004 C18.3338572,0.198008829 16.6031428,0.198008829 15.1984,1.004 L2.66455,7.428 C1.25965361,8.2340793 0.394272618,9.72384139 0.39445,11.336 L0.39445,28.984 C0.394272618,30.5961586 1.25965361,32.0859207 2.66455,32.892 L15.1984,39.316 C16.6031428,40.1219912 18.3338572,40.1219912 19.7386,39.316 L32.27245,32.892 C33.6773464,32.0859207 34.5427274,30.5961586 34.54255,28.984 L34.54255,11.336 C34.5427274,9.72384139 33.6773464,8.2340793 32.27245,7.428 L32.27245,7.428 Z" id="Shape" fill="url(#linearGradient-1)"></path>
                        <path d="M25.599,22.528 C27.281573,21.5892893 28.3107806,19.8093454 28.27965,17.892 C28.2979776,16.2794821 27.6017248,14.7405633 26.375825,13.684 C25.22065,12.72 23.832025,12.32 21.545825,12.3 L16.2127,12.3 L14.15995,15.56 L14.15995,15.56 L9.358125,23.04 L9.358125,23.04 L5.840275,28.552 L9.422525,28.552 L12.56605,23.568 L14.252525,26.256 L15.68945,28.552 L19.31195,28.552 L14.357175,20.808 L17.923325,15.188 L21.610225,15.188 C22.978725,15.188 23.783725,15.376 24.3432,15.88 C24.8912307,16.3888392 25.1931663,17.1069445 25.17235,17.852 C25.17235,19.54 24.194275,20.396 22.085175,20.504 L20.5919,20.504 L21.091,21.248 L22.471575,23.34 L22.471575,23.34 L25.94515,28.564 L29.547525,28.564 L25.599,22.528 Z" id="Shape" fill="#FFFFFF"></path>
                        <polygon id="Shape" fill="#FFFFFF" points="11.322325 16.036 8.9677 12.296 5.3774 12.296 9.511075 18.836"></polygon>
                    </g>
                    <g id="text" transform="translate(46.000000, 10.000000)" fill-rule="nonzero" fill="#677D9D">
                        <path d="M11.3286861,18.4589481 C10.8606895,17.5524642 10.3501477,16.6381432 9.79706076,15.7159852 C9.28367753,14.8416076 8.63814479,14.048871 7.88252911,13.3648741 C7.65916709,13.6078222 7.37597595,13.9448148 7.0329557,14.3758519 C6.68993544,14.8068889 6.34691519,15.2653556 6.00389494,15.7512519 C5.66087468,16.2371481 5.34045654,16.7400247 5.04264051,17.2598815 C4.74482447,17.7797383 4.52279198,18.1885704 4.37654304,18.4863778 L0.116710127,18.4863778 C0.867601787,17.129257 1.69313539,15.8133002 2.58964684,14.5443481 C3.53893544,13.1885407 4.60256414,11.7517506 5.78053291,10.2339778 L0.367992405,2.1970963 L4.89107342,2.1970963 L8.05005063,6.89931852 L11.2808228,2.1970963 L15.5406557,2.1970963 L10.1600241,10.061563 C11.4164095,11.5852271 12.5804361,13.1802089 13.6460671,14.838237 C14.5581287,16.2854765 15.2787371,17.5028296 15.8078924,18.4902963 L11.3406519,18.4902963 L11.3286861,18.4589481 Z" id="Shape"></path>
                        <path d="M15.1976354,12.283363 C15.1919097,11.4217884 15.3418108,10.5660478 15.6403709,9.75591852 C16.2027447,8.19531729 17.4048908,6.93755055 18.9549038,6.28802963 C19.8176359,5.93057735 20.7469426,5.75438888 21.6831114,5.77078519 C22.3019546,5.76585005 22.9196062,5.82495376 23.5258481,5.94711852 C24.0833697,6.06460219 24.6282686,6.23385898 25.1532,6.45260741 L24.411319,9.25042963 C24.0519017,9.1177186 23.6841961,9.00777473 23.3104633,8.92127407 C22.8709108,8.82281304 22.4210989,8.77546579 21.9702911,8.78020741 C21.0730952,8.71426661 20.1976113,9.07227765 19.6130241,9.74416296 C19.0580667,10.4753853 18.7763649,11.3720607 18.8153025,12.283363 C18.7572253,13.2013867 19.0142357,14.1120214 19.5452177,14.8695852 C20.0318278,15.4808741 20.8814013,15.7865185 22.093938,15.7865185 C22.5590683,15.783786 23.0232295,15.7444753 23.4819734,15.668963 C23.951122,15.5929805 24.4091646,15.4614034 24.8460772,15.2771111 L25.3486418,18.1454667 C24.8460392,18.3434177 24.3250824,18.4930215 23.7930848,18.5921778 C23.1152318,18.7227345 22.4256975,18.7857501 21.7349633,18.7802667 C20.7216514,18.8041424 19.7134212,18.6324001 18.7674392,18.2747778 C17.9890975,17.9727342 17.2898119,17.5026832 16.7212835,16.8993778 C16.1798328,16.3076368 15.7792605,15.6048988 15.5486329,14.8421556 C15.3031352,14.0110412 15.1848416,13.1486737 15.1976354,12.283363 L15.1976354,12.283363 Z" id="Shape"></path>
                        <path d="M26.5651671,18.4589481 L26.5651671,0.78642963 L30.1309823,0.222162963 L30.1309823,6.14696296 C30.4329146,6.0531865 30.7406723,5.97858073 31.0523506,5.92360741 C31.4110878,5.85456554 31.775687,5.81913993 32.1412405,5.81780741 C33.0085755,5.7859057 33.8740137,5.9189621 34.6899608,6.20965926 C35.326712,6.45674915 35.8873963,6.86177255 36.3173127,7.38521481 C36.7357075,7.91075929 37.0299819,8.52108854 37.1788519,9.17205926 C37.3537153,9.92784539 37.4380484,10.7011228 37.4301342,11.4761481 L37.4301342,18.4589481 L33.864319,18.4589481 L33.864319,11.8993481 C33.864319,10.7708148 33.7167405,9.97143704 33.4215835,9.50121481 C33.1264266,9.03099259 32.5799873,8.79588148 31.7822658,8.79588148 C31.4810947,8.79427419 31.1804957,8.82183709 30.8848291,8.87817037 C30.6056266,8.93302963 30.3543443,8.99180741 30.1309823,9.0545037 L30.1309823,18.4589481 L26.5651671,18.4589481 L26.5651671,18.4589481 Z" id="Shape"></path>
                        <path d="M43.9874051,5.77078519 C44.8785237,5.74795645 45.7675249,5.86705363 46.6198861,6.12345185 C47.2579034,6.31997222 47.8371875,6.66708576 48.3070671,7.13442963 C48.7366598,7.58589964 49.045081,8.13534251 49.2045038,8.73318519 C49.3870764,9.41598336 49.4756149,10.1197525 49.4677519,10.8256741 L49.4677519,18.1141185 C48.9572101,18.223837 48.247238,18.3544543 47.3378354,18.5059704 C46.2449232,18.6678959 45.1404566,18.7425919 44.0352684,18.7293259 C43.291823,18.7361782 42.5497479,18.6652451 41.8215911,18.5177259 C41.2107159,18.3981206 40.6294776,18.1625231 40.1104785,17.8241481 C39.6363872,17.5082948 39.2564257,17.0741485 39.0096228,16.5663037 C38.7318389,15.9692884 38.5954662,15.3181637 38.610762,14.6619037 C38.5902001,14.02286 38.7430008,13.3899402 39.0534975,12.828037 C39.3421433,12.3349329 39.7539692,11.9222519 40.2500797,11.6289704 C40.7747552,11.3197703 41.3494377,11.1010934 41.9492266,10.9824148 C42.6050158,10.8472404 43.2734665,10.7802566 43.9435304,10.7825704 C44.3551372,10.7802268 44.7665697,10.7998483 45.1760101,10.8413481 C45.4708596,10.8693314 45.7629591,10.920435 46.0495152,10.9941704 L46.0495152,10.6650148 C46.0718873,10.133359 45.8731866,9.61563053 45.4990873,9.23083704 C45.1321354,8.87033333 44.4939582,8.69008148 43.5845557,8.69008148 C42.9838401,8.68971813 42.3839174,8.73293938 41.7896823,8.81939259 C41.2678161,8.88918033 40.7545968,9.01129145 40.258057,9.18381481 L39.8033557,6.36248148 C40.0107633,6.29978519 40.2766705,6.23317037 40.6010772,6.16263704 C40.925484,6.0921037 41.2645156,6.02940741 41.6181722,5.97454815 C41.9851241,5.91968889 42.372019,5.87266667 42.778857,5.83348148 C43.1856949,5.7942963 43.5885443,5.77339753 43.9874051,5.77078519 Z M44.2745848,16.0216296 C44.6255823,16.0216296 44.9606253,16.0137926 45.2797139,15.9981185 C45.5361217,15.9886221 45.7917901,15.9650744 46.0455266,15.9275852 L46.0455266,13.2708296 C45.9019367,13.2394815 45.6865519,13.2081333 45.3993722,13.1767852 C45.1345491,13.1466931 44.8682363,13.1309951 44.6016506,13.129763 C44.2855723,13.1287307 43.9697744,13.1483666 43.6563506,13.1885407 C43.3795689,13.218484 43.1098933,13.293991 42.8586291,13.4118963 C42.6459556,13.5123602 42.4642618,13.6665202 42.3321329,13.8586074 C42.1978494,14.0695741 42.131151,14.315298 42.1406797,14.5639407 C42.0926865,15.0180893 42.3105321,15.4597851 42.7030734,15.7042296 C43.1895946,15.9433626 43.7314973,16.0528113 44.2745848,16.0216296 L44.2745848,16.0216296 Z" id="Shape"></path>
                        <path d="M51.5019418,6.52314074 C52.273147,6.31635524 53.0563329,6.1554044 53.847243,6.04116296 C54.8448683,5.88925525 55.8530987,5.81457367 56.8626304,5.81780741 C57.7690802,5.78557275 58.6737747,5.9184273 59.5310089,6.20965926 C60.1883095,6.44992331 60.7700314,6.85524221 61.2181899,7.38521481 C61.6440029,7.90930315 61.946399,8.51952628 62.1036608,9.17205926 C62.2867341,9.9266666 62.3751403,10.7004451 62.3669089,11.4761481 L62.3669089,18.4589481 L58.8010937,18.4589481 L58.8010937,11.8993481 C58.8010937,10.7708148 58.6495266,9.97143704 58.3463924,9.50121481 C58.0432582,9.03099259 57.4768759,8.79588148 56.6472456,8.79588148 C56.3813384,8.79588148 56.1154312,8.80763704 55.8495241,8.83114815 C55.5836169,8.85465926 55.328346,8.88208889 55.0837114,8.91343704 L55.0837114,18.4589481 L51.5178962,18.4589481 L51.5178962,6.5153037 L51.5019418,6.52314074 Z" id="Shape"></path>
                        <path d="M75.2660658,16.9150519 C75.2660658,18.9370074 74.7435582,20.4378 73.698543,21.4174296 C72.6535278,22.3970593 71.0381418,22.8868741 68.8523848,22.8868741 C68.0820952,22.8864316 67.3133319,22.8195601 66.5549468,22.6870296 C65.8322655,22.5643918 65.1202098,22.387541 64.4250304,22.1580296 L65.0472532,19.2191407 C65.6170631,19.4417319 66.2056424,19.6148095 66.8062291,19.7363852 C67.4959458,19.8686213 68.1975579,19.9316415 68.9002481,19.9244741 C69.9213316,19.9244741 70.6432696,19.705037 71.066062,19.266163 C71.4981433,18.8071766 71.7263555,18.1980239 71.7002506,17.573363 L71.7002506,17.1266519 C71.3173381,17.3002675 70.916031,17.4316859 70.5036684,17.5185037 C70.0668632,17.6078225 69.6216154,17.6511708 69.175462,17.6478148 C67.4364291,17.6478148 66.1068932,17.1423259 65.1868544,16.1313481 C64.2668156,15.1203704 63.8041371,13.7057852 63.798819,11.8875926 C63.7877152,11.0419321 63.9336934,10.2013723 64.2295886,9.40717037 C64.500943,8.68483317 64.9297577,8.0295095 65.486,7.4870963 C66.062461,6.93830263 66.7520507,6.51738805 67.5082241,6.25276296 C68.3762161,5.95119988 69.2919388,5.80391512 70.2125,5.81780741 C70.6432696,5.81780741 71.0860051,5.8374 71.5407063,5.87658519 C71.9954076,5.91577037 72.4461203,5.96671111 72.8928443,6.02940741 C73.3395684,6.0921037 73.7663494,6.16655556 74.1731873,6.25276296 C74.5800253,6.33897037 74.9429886,6.4290963 75.2620772,6.52314074 L75.2620772,16.9150519 L75.2660658,16.9150519 Z M67.4404177,11.8836741 C67.4404177,13.8429333 68.2461165,14.822563 69.8575139,14.822563 C70.2057088,14.8252103 70.5524172,14.7776825 70.8865747,14.6814963 C71.1641053,14.6012396 71.4316647,14.4908393 71.6842962,14.3523407 L71.6842962,8.7566963 C71.5087975,8.72534815 71.3013899,8.69791852 71.0620734,8.67440741 C70.822757,8.6508963 70.5435544,8.63914074 70.2244658,8.63914074 C69.4109619,8.58182291 68.6216616,8.9254796 68.118481,9.55607407 C67.6383154,10.2378619 67.3987456,11.0554281 67.4364291,11.8836741 L67.4404177,11.8836741 Z" id="Shape"></path>
                        <path d="M76.8176342,12.3774074 C76.7966907,11.3936198 76.9714707,10.4152797 77.3321646,9.4972963 C77.6384833,8.7297107 78.0982449,8.0302024 78.6843025,7.44007407 C79.2319402,6.89841066 79.8878998,6.47412571 80.6108,6.19398519 C81.322519,5.91450714 82.0819422,5.77087706 82.8484089,5.77078519 C84.6353051,5.77078519 86.0472722,6.30762222 87.0843101,7.3812963 C88.1213481,8.45497037 88.6398671,10.0341333 88.6398671,12.1187852 C88.6398671,12.3225481 88.6318899,12.5459037 88.6159354,12.7888519 C88.599981,13.0318 88.5840266,13.2473185 88.5680722,13.4354074 L80.4791759,13.4354074 C80.5431029,14.1300928 80.9207783,14.7599957 81.5082367,15.1517185 C82.2346688,15.6081168 83.0881277,15.8300626 83.9492646,15.7865185 C84.5956357,15.7871729 85.2406386,15.7281354 85.875762,15.6101852 C86.4050823,15.5217281 86.9227793,15.3758506 87.4193532,15.1752296 L87.8979861,18.0200741 C87.6511174,18.1348118 87.3949638,18.2291814 87.1321734,18.3022074 C86.7819931,18.4033573 86.4264845,18.4857673 86.0672152,18.5490741 C85.6763316,18.6196074 85.2575278,18.6783852 84.8108038,18.7254074 C84.3656694,18.7722549 83.9183129,18.7957993 83.4706316,18.7959407 C82.4624587,18.8173989 81.4593652,18.6498296 80.5150734,18.3022074 C79.7287048,18.006719 79.017957,17.5452264 78.4330203,16.9503185 C77.8775064,16.3698681 77.4605727,15.6751421 77.2125063,14.9166074 C76.943435,14.0964169 76.8101151,13.2391123 76.8176342,12.3774074 Z M85.1937101,11.0372741 C85.1779502,10.7421802 85.1257147,10.4500649 85.0381544,10.167363 C84.9566604,9.89332624 84.8211385,9.63769653 84.6392937,9.41500741 C84.4482649,9.18978882 84.2120033,9.0057016 83.9452759,8.87425185 C83.6203103,8.72345682 83.2634428,8.6509196 82.9042494,8.66265185 C82.5504067,8.65368275 82.1989446,8.72193698 81.8751886,8.8624963 C81.6003457,8.98673441 81.3555972,9.16707022 81.1572392,9.3914963 C80.9598714,9.62242179 80.809562,9.88849044 80.7145038,10.1752 C80.6116346,10.4616993 80.5355368,10.7568069 80.4871532,11.0568667 L85.2016873,11.0568667 L85.1937101,11.0372741 Z" id="Shape"></path>
                        <path d="M95.2928646,2.00117037 C97.7817557,2.00117037 99.6883101,2.43612593 101.012528,3.30603704 C102.336746,4.17594815 103.001514,5.52783704 103.006832,7.3617037 C103.054099,8.35065098 102.774242,9.32806017 102.20911,10.1477704 C101.612465,10.9072557 100.813006,11.4891924 99.8997063,11.8288148 C100.234749,12.2363407 100.585747,12.7026444 100.952699,13.2277259 C101.319651,13.7528074 101.682614,14.3014 102.041589,14.8735037 C102.400563,15.4456074 102.747572,16.0412222 103.082615,16.6603481 C103.417658,17.2794741 103.72877,17.8868444 104.015949,18.4824593 L99.8438658,18.4824593 L98.9185089,16.8601926 C98.6073975,16.3116 98.2869793,15.7786815 97.9572544,15.261437 C97.6275295,14.7441926 97.3031228,14.2543778 96.9840342,13.7919926 C96.6622865,13.3296074 96.3418684,12.9103259 96.0227797,12.5341481 L94.180043,12.5341481 L94.180043,18.4589481 L90.4467063,18.4589481 L90.4467063,2.39302222 C91.2808349,2.23373788 92.1239494,2.12382142 92.9714949,2.06386667 C93.8330342,2.02206914 94.6068241,2.00117037 95.2928646,2.00117037 Z M95.5082494,5.13598519 C95.2423422,5.13598519 94.9990371,5.14382222 94.7783342,5.1594963 L94.1680772,5.20651852 L94.1680772,9.62660741 L95.2210696,9.62660741 C96.6250595,9.62660741 97.6301886,9.45419259 98.236457,9.10936296 C98.8570433,8.74003146 99.2097762,8.05608165 99.1458595,7.34602963 C99.2023163,6.65015592 98.8429177,5.98525908 98.2244911,5.64147407 C97.3771062,5.24846241 96.4441605,5.06676714 95.5082494,5.11247407 L95.5082494,5.13598519 Z" id="Shape"></path>
                        <path d="M108.886039,5.77078519 C109.777154,5.74802551 110.666144,5.86712118 111.51852,6.12345185 C112.156538,6.31997222 112.735822,6.66708576 113.205701,7.13442963 C113.635431,7.58580212 113.943872,8.13528093 114.103138,8.73318519 C114.285711,9.41598336 114.374249,10.1197525 114.366386,10.8256741 L114.366386,18.1141185 C113.855844,18.223837 113.145872,18.3544543 112.23647,18.5059704 C111.143559,18.6679129 110.039091,18.7426091 108.933903,18.7293259 C108.190458,18.7361485 107.448387,18.6652157 106.720225,18.5177259 C106.10935,18.3981206 105.528112,18.1625231 105.009113,17.8241481 C104.534892,17.508437 104.154897,17.0742525 103.908257,16.5663037 C103.63034,15.969331 103.493961,15.318176 103.509396,14.6619037 C103.488834,14.02286 103.641635,13.3899402 103.952132,12.828037 C104.240777,12.3349329 104.652603,11.9222519 105.148714,11.6289704 C105.673424,11.3198398 106.248094,11.1011677 106.847861,10.9824148 C107.50365,10.8472404 108.172101,10.7802566 108.842165,10.7825704 C109.253771,10.7802268 109.665204,10.7998483 110.074644,10.8413481 C110.369478,10.8694469 110.661568,10.920549 110.948149,10.9941704 L110.948149,10.6650148 C110.970522,10.133359 110.771821,9.61563053 110.397722,9.23083704 C110.03077,8.87033333 109.392592,8.69008148 108.48319,8.69008148 C107.882475,8.68974665 107.282555,8.73296774 106.688316,8.81939259 C106.166455,8.88920734 105.653239,9.0113178 105.156691,9.18381481 L104.70199,6.36248148 C104.909397,6.29978519 105.175305,6.23317037 105.499711,6.16263704 C105.824118,6.0921037 106.16315,6.02940741 106.516806,5.97454815 C106.883758,5.91968889 107.270653,5.87266667 107.677491,5.83348148 C108.084329,5.7942963 108.487178,5.77339753 108.886039,5.77078519 Z M109.173219,16.0216296 C109.524216,16.0216296 109.859259,16.0137926 110.178348,15.9981185 C110.434757,15.9886465 110.690427,15.9650987 110.944161,15.9275852 L110.944161,13.2708296 C110.800571,13.2394815 110.585186,13.2081333 110.298006,13.1767852 C110.033183,13.146701 109.76687,13.1310031 109.500285,13.129763 C109.184206,13.1287191 108.868407,13.1483551 108.554985,13.1885407 C108.278218,13.2185574 108.008554,13.2940609 107.757263,13.4118963 C107.544484,13.5122013 107.362751,13.666394 107.230767,13.8586074 C107.096484,14.0695741 107.029785,14.315298 107.039314,14.5639407 C106.990356,15.0182552 107.208436,15.460426 107.601708,15.7042296 C108.088229,15.9433626 108.630131,16.0528113 109.173219,16.0216296 Z" id="Shape"></path>
                        <path d="M116.280918,3.01998519 L119.846733,2.45571852 L119.846733,6.09994074 L124.118532,6.09994074 L124.118532,9.01531852 L119.834767,9.01531852 L119.834767,13.3648741 C119.806257,13.976996 119.943912,14.5855597 120.233628,15.1282074 C120.499535,15.5670815 121.031349,15.7865185 121.829071,15.7865185 C122.230321,15.7858589 122.630731,15.7504552 123.025653,15.6807185 C123.405209,15.6175041 123.777815,15.5191014 124.138475,15.3868296 L124.641039,18.1297926 C124.174382,18.3135743 123.694416,18.4628925 123.205141,18.5765037 C122.568631,18.7130507 121.918078,18.7761737 121.266677,18.7645926 C120.442781,18.7885518 119.621961,18.6554832 118.849581,18.3727407 C118.254326,18.1449838 117.727425,17.772929 117.317956,17.2912296 C116.922192,16.7996989 116.649002,16.2240023 116.520234,15.6101852 C116.362095,14.8918874 116.285842,14.1585265 116.292884,13.4236519 L116.292884,3.01998519 L116.280918,3.01998519 Z" id="Shape"></path>
                        <path d="M124.75272,12.3774074 C124.731674,11.3936121 124.906458,10.4152526 125.267251,9.4972963 C125.573569,8.7297107 126.033331,8.0302024 126.619389,7.44007407 C127.166953,6.89832231 127.822932,6.47402442 128.545886,6.19398519 C129.257605,5.91450714 130.017028,5.77087706 130.783495,5.77078519 C132.570391,5.77078519 133.982358,6.30762222 135.019396,7.3812963 C136.056434,8.45497037 136.574953,10.0341333 136.574953,12.1187852 C136.574953,12.3225481 136.566976,12.5459037 136.551022,12.7888519 C136.551022,13.0318 136.519113,13.2473185 136.503158,13.4354074 L128.414262,13.4354074 C128.478189,14.1300928 128.855864,14.7599957 129.443323,15.1517185 C130.169755,15.6081168 131.023214,15.8300626 131.884351,15.7865185 C132.530722,15.7871729 133.175725,15.7281354 133.810848,15.6101852 C134.340176,15.5217596 134.857876,15.3758811 135.354439,15.1752296 L135.833072,18.0200741 C135.586161,18.1347122 135.330016,18.2290787 135.067259,18.3022074 C134.717067,18.4033128 134.361561,18.4857222 134.002301,18.5490741 C133.611418,18.6196074 133.192614,18.6783852 132.74589,18.7254074 C132.300756,18.7722622 131.853399,18.7958067 131.405718,18.7959407 C130.397538,18.817495 129.394426,18.6499226 128.450159,18.3022074 C127.663791,18.006719 126.953043,17.5452264 126.368106,16.9503185 C125.812593,16.3698681 125.395659,15.6751421 125.147592,14.9166074 C124.878521,14.0964169 124.745201,13.2391123 124.75272,12.3774074 Z M133.128796,11.0372741 C133.113036,10.7421802 133.060801,10.4500649 132.973241,10.167363 C132.891746,9.89332624 132.756225,9.63769653 132.57438,9.41500741 C132.383431,9.18970784 132.147151,9.00560617 131.880362,8.87425185 C131.555396,8.72345682 131.198529,8.6509196 130.839335,8.66265185 C130.485493,8.65368275 130.134031,8.72193698 129.810275,8.8624963 C129.535432,8.98673441 129.290683,9.16707022 129.092325,9.3914963 C128.894957,9.62242179 128.744648,9.88849044 128.64959,10.1752 C128.546721,10.4616993 128.470623,10.7568069 128.422239,11.0568667 L133.136773,11.0568667 L133.128796,11.0372741 Z" id="Shape"></path>
                    </g>
                    <path d="M150.246196,33.0885201 C151.396963,33.0885201 152.278466,33.2932206 152.890733,33.7026279 C153.503,34.1120352 153.809129,34.7482668 153.809129,35.6113416 C153.809129,36.1498413 153.685571,36.5869047 153.438451,36.922545 C153.191331,37.2581852 152.83541,37.5218985 152.370678,37.7136929 C152.525589,37.9054874 152.687874,38.1249411 152.857538,38.3720609 C153.027202,38.6191806 153.19502,38.8773615 153.360996,39.1466113 C153.526972,39.4158612 153.687413,39.6961719 153.842324,39.9875519 C153.997235,40.2789318 154.141078,40.564775 154.273859,40.8450899 L152.337483,40.8450899 C152.197325,40.5942818 152.055326,40.3397892 151.91148,40.0816044 C151.767634,39.8234196 151.620102,39.5726153 151.46888,39.329184 C151.317657,39.0857526 151.168281,38.8552339 151.020747,38.637621 C150.873213,38.4200081 150.725681,38.2226841 150.578147,38.0456432 L149.726141,38.0456432 L149.726141,40.8450899 L148,40.8450899 L148,33.2876902 C148.376212,33.2139231 148.765328,33.1622869 149.167358,33.1327801 C149.569389,33.1032733 149.928998,33.0885201 150.246196,33.0885201 Z M150.345781,34.560166 C150.220377,34.560166 150.107884,34.5638543 150.008299,34.571231 C149.908713,34.5786077 149.814662,34.5859843 149.726141,34.593361 L149.726141,36.6735823 L150.213001,36.6735823 C150.862152,36.6735823 151.326877,36.5924397 151.607192,36.4301521 C151.887507,36.2678646 152.027663,35.9912422 152.027663,35.6002766 C152.027663,35.2240645 151.885663,34.9566628 151.60166,34.7980636 C151.317656,34.6394644 150.899035,34.560166 150.345781,34.560166 Z M156.077455,37.0055325 C156.077455,37.3817446 156.123559,37.7210681 156.215768,38.0235131 C156.307977,38.3259582 156.440755,38.5859832 156.614108,38.8035961 C156.787461,39.021209 156.999538,39.1890266 157.250346,39.3070539 C157.501154,39.4250813 157.788841,39.4840941 158.113416,39.4840941 C158.430615,39.4840941 158.716458,39.4250813 158.970954,39.3070539 C159.225451,39.1890266 159.439372,39.021209 159.612725,38.8035961 C159.786077,38.5859832 159.918856,38.3259582 160.011065,38.0235131 C160.103274,37.7210681 160.149378,37.3817446 160.149378,37.0055325 C160.149378,36.6293204 160.103274,36.2881528 160.011065,35.9820194 C159.918856,35.675886 159.786077,35.4140168 159.612725,35.1964039 C159.439372,34.978791 159.225451,34.8109734 158.970954,34.6929461 C158.716458,34.5749187 158.430615,34.5159059 158.113416,34.5159059 C157.788841,34.5159059 157.501154,34.5767629 157.250346,34.6984786 C156.999538,34.8201942 156.787461,34.989856 156.614108,35.2074689 C156.440755,35.4250818 156.307977,35.686951 156.215768,35.9930844 C156.123559,36.2992178 156.077455,36.6366971 156.077455,37.0055325 Z M161.930844,37.0055325 C161.930844,37.6620595 161.833104,38.2392783 161.637621,38.7372061 C161.442138,39.2351339 161.174737,39.6519116 160.835408,39.9875519 C160.49608,40.3231921 160.092211,40.5758406 159.62379,40.7455048 C159.155369,40.9151691 158.651916,41 158.113416,41 C157.58967,41 157.095438,40.9151691 156.630705,40.7455048 C156.165973,40.5758406 155.76026,40.3231921 155.413555,39.9875519 C155.066849,39.6519116 154.793915,39.2351339 154.594744,38.7372061 C154.395573,38.2392783 154.295989,37.6620595 154.295989,37.0055325 C154.295989,36.3490055 154.399261,35.7717867 154.605809,35.2738589 C154.812357,34.7759311 155.090824,34.3573092 155.441217,34.0179806 C155.791611,33.6786521 156.197324,33.4241594 156.658368,33.2544952 C157.119412,33.0848309 157.604424,33 158.113416,33 C158.637163,33 159.131395,33.0848309 159.596127,33.2544952 C160.06086,33.4241594 160.466573,33.6786521 160.813278,34.0179806 C161.159983,34.3573092 161.432917,34.7759311 161.632089,35.2738589 C161.83126,35.7717867 161.930844,36.3490055 161.930844,37.0055325 Z M165.372061,40.944675 C164.951589,40.944675 164.532967,40.9317659 164.116183,40.9059474 C163.699399,40.880129 163.266024,40.819272 162.816044,40.7233748 L162.816044,33.2876902 C163.170126,33.2212998 163.557398,33.1715078 163.97787,33.1383126 C164.398342,33.1051174 164.789302,33.0885201 165.150761,33.0885201 C165.637624,33.0885201 166.085752,33.1235589 166.495159,33.1936376 C166.904567,33.2637163 167.256799,33.3835861 167.551867,33.5532503 C167.846936,33.7229146 168.077454,33.9460567 168.24343,34.2226833 C168.409406,34.4993098 168.492393,34.8404775 168.492393,35.2461964 C168.492393,35.8584632 168.197329,36.3416303 167.607192,36.6957123 C168.094055,36.88013 168.426002,37.1309343 168.603043,37.4481328 C168.780084,37.7653312 168.868603,38.1230962 168.868603,38.5214385 C168.868603,39.3254996 168.575383,39.9303806 167.988935,40.3360996 C167.402487,40.7418185 166.530204,40.944675 165.372061,40.944675 Z M164.497925,37.5034578 L164.497925,39.4840941 C164.623329,39.4988475 164.759797,39.5099124 164.907331,39.5172891 C165.054865,39.5246658 165.21715,39.5283541 165.394191,39.5283541 C165.910561,39.5283541 166.327338,39.4545881 166.644537,39.3070539 C166.961735,39.1595198 167.120332,38.8865857 167.120332,38.4882434 C167.120332,38.1341614 166.987553,37.881513 166.721992,37.7302905 C166.45643,37.5790679 166.076536,37.5034578 165.582296,37.5034578 L164.497925,37.5034578 Z M164.497925,36.186722 L165.338866,36.186722 C165.869989,36.186722 166.249884,36.1184885 166.478562,35.9820194 C166.70724,35.8455503 166.821577,35.6260965 166.821577,35.3236515 C166.821577,35.0138297 166.703551,34.7962201 166.467497,34.670816 C166.231442,34.545412 165.884742,34.4827109 165.427386,34.4827109 C165.279852,34.4827109 165.121255,34.4845551 164.951591,34.4882434 C164.781926,34.4919318 164.630706,34.5011525 164.497925,34.5159059 L164.497925,36.186722 Z M171.147995,37.0055325 C171.147995,37.3817446 171.194098,37.7210681 171.286307,38.0235131 C171.378516,38.3259582 171.511295,38.5859832 171.684648,38.8035961 C171.858,39.021209 172.070077,39.1890266 172.320885,39.3070539 C172.571693,39.4250813 172.859381,39.4840941 173.183956,39.4840941 C173.501154,39.4840941 173.786998,39.4250813 174.041494,39.3070539 C174.29599,39.1890266 174.509912,39.021209 174.683264,38.8035961 C174.856617,38.5859832 174.989396,38.3259582 175.081605,38.0235131 C175.173813,37.7210681 175.219917,37.3817446 175.219917,37.0055325 C175.219917,36.6293204 175.173813,36.2881528 175.081605,35.9820194 C174.989396,35.675886 174.856617,35.4140168 174.683264,35.1964039 C174.509912,34.978791 174.29599,34.8109734 174.041494,34.6929461 C173.786998,34.5749187 173.501154,34.5159059 173.183956,34.5159059 C172.859381,34.5159059 172.571693,34.5767629 172.320885,34.6984786 C172.070077,34.8201942 171.858,34.989856 171.684648,35.2074689 C171.511295,35.4250818 171.378516,35.686951 171.286307,35.9930844 C171.194098,36.2992178 171.147995,36.6366971 171.147995,37.0055325 Z M177.001383,37.0055325 C177.001383,37.6620595 176.903643,38.2392783 176.708161,38.7372061 C176.512678,39.2351339 176.245276,39.6519116 175.905948,39.9875519 C175.566619,40.3231921 175.16275,40.5758406 174.694329,40.7455048 C174.225908,40.9151691 173.722456,41 173.183956,41 C172.66021,41 172.165978,40.9151691 171.701245,40.7455048 C171.236512,40.5758406 170.8308,40.3231921 170.484094,39.9875519 C170.137389,39.6519116 169.864455,39.2351339 169.665284,38.7372061 C169.466113,38.2392783 169.366529,37.6620595 169.366529,37.0055325 C169.366529,36.3490055 169.469801,35.7717867 169.676349,35.2738589 C169.882897,34.7759311 170.161363,34.3573092 170.511757,34.0179806 C170.86215,33.6786521 171.267863,33.4241594 171.728908,33.2544952 C172.189952,33.0848309 172.674963,33 173.183956,33 C173.707702,33 174.201934,33.0848309 174.666667,33.2544952 C175.131399,33.4241594 175.537112,33.6786521 175.883818,34.0179806 C176.230523,34.3573092 176.503457,34.7759311 176.702628,35.2738589 C176.901799,35.7717867 177.001383,36.3490055 177.001383,37.0055325 Z M183.319502,33.1770401 L183.319502,34.648686 L181.006916,34.648686 L181.006916,40.8450899 L179.280775,40.8450899 L179.280775,34.648686 L176.968188,34.648686 L176.968188,33.1770401 L183.319502,33.1770401 Z" id="ROBOT" fill="#4FA3FF"></path>
                </g>
            </g>
        </g>
    </g>
</svg>