<svg xmlns="http://www.w3.org/2000/svg" width="130" height="112" viewBox="0 0 130 112">
    <g fill="#4FA3FF" fill-rule="evenodd">
        <path d="M95.57 89.057c0-30.102-24.387-54.59-54.358-54.59a1.822 1.822 0 0 1-1.823-1.829V19.266c0-1.007.814-1.823 1.823-1.823 39.372 0 71.394 32.126 71.394 71.614a1.821 1.821 0 0 1-1.818 1.828H97.392a1.822 1.822 0 0 1-1.822-1.828zm-23.652-.014c0-8.262-3.204-16.016-9.007-21.844-5.802-5.82-13.506-9.018-21.722-9.018a1.822 1.822 0 0 1-1.823-1.828V42.976c0-1.007.814-1.823 1.823-1.823 26.34 0 47.755 21.48 47.755 47.89a1.821 1.821 0 0 1-1.818 1.828H73.74a1.822 1.822 0 0 1-1.822-1.828zM43.03 21.187l-.005 9.722 4.106.21c27.265 2.788 49.001 24.619 51.777 51.993l.21 4.122h9.754l-.26-5.11c-3.246-31.944-28.637-57.422-60.486-60.676l-5.096-.261zm-.023 23.71l-.005 9.726 1.6.075c7.89.774 15.208 4.229 20.88 9.922 5.678 5.698 9.132 13.06 9.909 20.992l.074 1.608h9.746l-.14-2.69c-2.11-20.791-18.645-37.376-39.381-39.493l-2.683-.14z"/>
        <path d="M39.366 80.323c0-5.843 4.729-10.553 10.53-10.553 5.807 0 10.527 4.715 10.527 10.553 0 5.844-4.72 10.562-10.526 10.562-5.797 0-10.53-4.718-10.53-10.562zm17.42 0a6.881 6.881 0 0 0-6.89-6.883 6.891 6.891 0 0 0-6.893 6.883 6.896 6.896 0 0 0 6.894 6.893 6.886 6.886 0 0 0 6.888-6.893z"/>
        <path d="M0 101.77V10.23C0 4.589 4.57 0 10.2 0h109.6c5.626 0 10.2 4.588 10.2 10.23v91.54c0 5.647-4.574 10.23-10.2 10.23H10.2C4.57 112 0 107.417 0 101.77zm126.51 0V10.23c0-3.705-3.016-6.73-6.71-6.73H10.2c-3.699 0-6.71 3.025-6.71 6.73v91.54c0 3.71 3.011 6.73 6.71 6.73h109.6c3.694 0 6.71-3.02 6.71-6.73z"/>
    </g>
</svg>
