<svg xmlns="http://www.w3.org/2000/svg" width="130" height="130" viewBox="0 0 130 130">
    <path fill="#4FA3FF" fill-rule="nonzero" d="M74.02 61.485a2.132 2.132 0 0 1 .957-2.887c.541-.27 13.3-6.647 19.974-8.723 1.16-.357 2.377.272 2.74 1.402.364 1.129-.273 2.335-1.422 2.694-6.335 1.969-19.182 8.388-19.31 8.453a2.208 2.208 0 0 1-2.938-.939zm1.95-24.593c-.795 0-1.563-.43-1.95-1.172a2.132 2.132 0 0 1 .957-2.888c.541-.27 13.3-6.647 19.974-8.723 1.16-.357 2.377.272 2.74 1.402.364 1.129-.273 2.336-1.422 2.694-6.335 1.969-19.182 8.388-19.31 8.453a2.208 2.208 0 0 1-.99.234zm51.863-4.391c1.198 0 2.167.97 2.167 2.167v84.499c0 5.973-4.86 10.833-10.833 10.833H10.833C4.86 130 0 125.14 0 119.167v-84.5a2.167 2.167 0 0 1 4.333 0v84.5c0 3.583 2.917 6.5 6.5 6.5h52v-5.094C60.19 119.466 53.421 117 45.5 117c-18.941 0-33.924 4.208-34.073 4.249a2.165 2.165 0 0 1-2.76-2.082V23.834c0-.966.64-1.818 1.57-2.082.633-.182 15.685-4.418 35.263-4.418 11.216 0 20.095 4.377 20.468 4.561a2.169 2.169 0 0 1 1.198 1.94v82.902C73.768 102.98 89.21 94.588 104 89.449V5.336c-15.932 6.406-31.192 15.9-31.352 16.002a2.166 2.166 0 1 1-2.297-3.674c.176-.109 17.717-11.024 35.053-17.526a2.165 2.165 0 0 1 1.995.249c.585.405.934 1.07.934 1.78V91c0 .934-.596 1.76-1.482 2.056-19.054 6.35-40.52 19.173-40.735 19.3a2.164 2.164 0 0 1-3.283-1.856V25.238c-2.659-1.112-9.434-3.57-17.333-3.57-15.394 0-28.173 2.78-32.5 3.843v90.867c5.282-1.25 17.576-3.712 32.5-3.712 9.325 0 17.034 3.025 19.584 4.152 2.87-1.051 12.142-4.151 21.582-4.151 14.522 0 25.424 2.333 30.334 3.62V25.596c-.715-.144-1.642-.323-2.75-.527a2.166 2.166 0 0 1 .785-4.262c2.903.533 4.602.912 4.602.912a2.163 2.163 0 0 1 1.696 2.115v95.332a2.165 2.165 0 0 1-2.849 2.057c-.128-.044-12.944-4.223-31.817-4.223-8.112 0-16.341 2.576-19.5 3.681v4.985h52c3.583 0 6.5-2.916 6.5-6.5V34.667c0-1.196.968-2.166 2.166-2.166zM74.021 48.603a2.132 2.132 0 0 1 .956-2.888c.541-.27 13.3-6.647 19.974-8.723 1.16-.357 2.377.272 2.74 1.402.364 1.129-.273 2.335-1.422 2.694-6.335 1.969-19.182 8.388-19.31 8.453a2.208 2.208 0 0 1-2.938-.938zm0 25.765a2.132 2.132 0 0 1 .956-2.887c.541-.27 13.3-6.647 19.974-8.724 1.16-.356 2.377.273 2.74 1.402.364 1.13-.273 2.336-1.422 2.695-6.335 1.969-19.182 8.388-19.31 8.453a2.208 2.208 0 0 1-2.938-.939zm-21.806-34.53a2.15 2.15 0 0 1-.979 4.188c-12.216-2.871-26.722.95-26.865.991a2.148 2.148 0 0 1-2.63-1.52 2.152 2.152 0 0 1 1.517-2.635c.634-.17 15.7-4.14 28.957-1.023zm0 13.468a2.15 2.15 0 0 1-.979 4.188c-12.216-2.872-26.722.95-26.865.991a2.148 2.148 0 0 1-2.63-1.52 2.152 2.152 0 0 1 1.517-2.635c.634-.17 15.7-4.138 28.957-1.024zm21.806 33.945a2.132 2.132 0 0 1 .956-2.887c.541-.27 13.3-6.647 19.974-8.724 1.16-.356 2.377.273 2.74 1.402.364 1.13-.273 2.336-1.422 2.695-6.335 1.968-19.182 8.388-19.31 8.452a2.208 2.208 0 0 1-2.938-.938zM52.215 66.19a2.15 2.15 0 0 1-.979 4.186c-12.216-2.87-26.722.95-26.865.991a2.15 2.15 0 0 1-2.63-1.52 2.151 2.151 0 0 1 1.517-2.634c.634-.172 15.7-4.136 28.957-1.023zm0 25.766a2.15 2.15 0 0 1-.979 4.186c-12.216-2.87-26.722.95-26.865.99-.187.05-.374.076-.559.076a2.15 2.15 0 0 1-.554-4.229c.634-.17 15.7-4.138 28.957-1.023zm0-12.882a2.15 2.15 0 0 1-.979 4.185c-12.216-2.87-26.722.95-26.865.991a2.15 2.15 0 0 1-2.63-1.52 2.15 2.15 0 0 1 1.517-2.633c.634-.172 15.7-4.138 28.957-1.023z"/>
</svg>
