<?xml version="1.0" encoding="UTF-8"?>
<svg width="120px" height="120px" viewBox="0 0 120 120" version="1.1" xmlns="http://www.w3.org/2000/svg" xmlns:xlink="http://www.w3.org/1999/xlink">
    <!-- Generator: Sketch 46.2 (44496) - http://www.bohemiancoding.com/sketch -->
    <title>icon</title>
    <desc>Created with Sketch.</desc>
    <defs>
        <circle id="path-1" cx="60" cy="60" r="60"></circle>
    </defs>
    <g id="Landing-page" stroke="none" stroke-width="1" fill="none" fill-rule="evenodd">
        <g transform="translate(-220.000000, -860.000000)" id="Features">
            <g transform="translate(220.000000, 860.000000)">
                <g id="Benefit-1-&amp;-2">
                    <g id="Benefit-1">
                        <g id="icon">
                            <mask id="mask-2" fill="white">
                                <use xlink:href="#path-1"></use>
                            </mask>
                            <use id="Oval" fill="#FFFFFF" xlink:href="#path-1"></use>
                            <g id="Group-5" mask="url(#mask-2)" fill="#4FA3FF">
                                <g transform="translate(33.000000, 32.000000)" id="Combined-Shape">
                                    <path d="M2.5,20 L2.5,20 C3.88071187,20 5,21.1192881 5,22.5 L5,47.5 L5,47.5 C5,48.8807119 3.88071187,50 2.5,50 L2.5,50 C1.11928813,50 7.2745158e-15,48.8807119 7.10542736e-15,47.5 L0,22.5 C-1.69088438e-16,21.1192881 1.11928813,20 2.5,20 L2.5,20 Z M12.5,0 C13.8807119,-2.53632657e-16 15,1.11928813 15,2.5 L15,47.5 C15,48.8807119 13.8807119,50 12.5,50 C11.1192881,50 10,48.8807119 10,47.5 L10,2.5 L10,2.5 C10,1.11928813 11.1192881,2.53632657e-16 12.5,0 Z M22.5,30 C23.8807119,30 25,31.1192881 25,32.5 L25,47.5 C25,48.8807119 23.8807119,50 22.5,50 C21.1192881,50 20,48.8807119 20,47.5 L20,32.5 C20,31.1192881 21.1192881,30 22.5,30 Z M32.5,14 C33.8807119,14 35,15.1192881 35,16.5 L35,47.5 C35,48.8807119 33.8807119,50 32.5,50 C31.1192881,50 30,48.8807119 30,47.5 L30,16.5 C30,15.1192881 31.1192881,14 32.5,14 Z M42.5,8 C43.8807119,8 45,9.11928813 45,10.5 L45,47.5 L45,47.5 C45,48.8807119 43.8807119,50 42.5,50 L42.5,50 C41.1192881,50 40,48.8807119 40,47.5 L40,10.5 C40,9.11928813 41.1192881,8 42.5,8 Z M52.5,25 C53.8807119,25 55,26.1192881 55,27.5 L55,47.5 C55,48.8807119 53.8807119,50 52.5,50 C51.1192881,50 50,48.8807119 50,47.5 L50,27.5 C50,26.1192881 51.1192881,25 52.5,25 Z"></path>
                                </g>
                            </g>
                        </g>
                    </g>
                </g>
            </g>
        </g>
    </g>
</svg>