<?xml version="1.0" encoding="UTF-8"?>
<svg width="120px" height="120px" viewBox="0 0 120 120" version="1.1" xmlns="http://www.w3.org/2000/svg" xmlns:xlink="http://www.w3.org/1999/xlink">
    <!-- Generator: Sketch 46.2 (44496) - http://www.bohemiancoding.com/sketch -->
    <title>Group 6</title>
    <desc>Created with Sketch.</desc>
    <defs></defs>
    <g id="Landing-page" stroke="none" stroke-width="1" fill="none" fill-rule="evenodd">
        <g transform="translate(-520.000000, -2122.000000)" id="Features">
            <g transform="translate(220.000000, 860.000000)">
                <g id="Benefit-3" transform="translate(300.000000, 1262.000000)">
                    <g id="Group-6">
                        <g>
                            <circle id="Oval" fill="#FFFFFF" cx="60" cy="60" r="60"></circle>
                            <g id="settings-cog" transform="translate(32.000000, 32.000000)" fill-rule="nonzero" fill="#4FA3FF">
                                <path d="M55.6471054,23.7530448 C55.5143682,22.878257 54.9111049,22.1484101 54.0783636,21.8530648 L49.6665385,20.2844243 C49.4055636,19.5452575 49.1095564,18.8266588 48.7814094,18.1315206 L50.7891804,13.9067003 C51.1681082,13.110007 51.0781168,12.16773 50.5548815,11.4552375 C48.862723,9.15385774 46.8408106,7.13207585 44.5453888,5.44773967 C43.8322075,4.92421675 42.8930836,4.83519536 42.0947319,5.21506282 L37.87221,7.22109724 C37.177027,6.89297146 36.4574177,6.59762612 35.7175604,6.3366681 L34.1481758,1.92448504 C33.8528114,1.09340446 33.1248458,0.491786956 32.2519298,0.357451424 C29.1504428,-0.119150475 26.855021,-0.119150475 23.748713,0.357451424 C22.8767612,0.491786956 22.1478314,1.09340446 21.852467,1.92448504 L20.2830824,6.3366681 C19.5432251,6.59762612 18.8236158,6.89297146 18.1290756,7.22109724 L13.9049467,5.21506282 C13.108202,4.83551674 12.1674711,4.92453813 11.4549326,5.44773967 C9.15951079,7.13207585 7.13759836,9.15385774 5.44543988,11.4552375 C4.92188316,12.16773 4.83221322,13.1096856 5.21114102,13.9067003 L7.21891195,18.1315206 C6.89076498,18.8253733 6.59540057,19.5455788 6.33378291,20.2844243 L1.92131498,21.8546717 C1.08921654,22.150017 0.486917395,22.8795425 0.353215985,23.7530448 C0.112489167,25.334219 0,26.682395 0,28.0013257 C0,29.3183281 0.112489167,30.6684323 0.353215985,32.2496065 C0.485953202,33.1243944 1.08921654,33.8542412 1.92195777,34.1495866 L6.33378291,35.7182271 C6.59540057,36.4586794 6.89172918,37.1775995 7.21891195,37.8727376 L5.21114102,42.0959511 C4.83221322,42.8926443 4.92220456,43.8349213 5.44479709,44.545807 C7.13470578,46.8455798 9.15661821,48.8673617 11.4549326,50.5549117 C12.1674711,51.0784346 13.108202,51.1690629 13.9055894,50.7875885 L18.1281114,48.7815541 C18.8232944,49.1096799 19.5429037,49.4050252 20.282761,49.6659833 L21.8521456,54.0781663 C22.14751,54.9092469 22.8754756,55.5108644 23.7483916,55.6451999 C25.3000993,55.8843043 26.6904654,56 27.9998393,56 C29.3092132,56 30.6999007,55.8843043 32.251287,55.6451999 C33.1238816,55.5108644 33.8521686,54.9092469 34.147533,54.0781663 L35.7169176,49.6659833 C36.4567749,49.4050252 37.1763842,49.1096799 37.8715672,48.7815541 L42.0940892,50.7875885 C42.8924408,51.1687415 43.8331717,51.0781132 44.5457102,50.5549117 C46.8465958,48.8644693 48.8685082,46.8426875 50.5552029,44.545807 C51.0777954,43.8349213 51.1677868,42.8926443 50.788859,42.0959511 L48.781088,37.8727376 C49.109235,37.1775995 49.4052422,36.4570725 49.6662171,35.7182271 L54.0780422,34.1495866 C54.9107835,33.8542412 55.5140468,33.1247157 55.646784,32.2496065 C55.8875108,30.6684323 56,29.3186495 56,28.0013257 C56,26.6840019 55.8878322,25.3338977 55.6471054,23.7530448 Z M52.2788155,30.2291449 L47.9257279,31.7772001 C47.1648333,32.0465887 46.5797118,32.6644587 46.3505308,33.4401763 C45.9618019,34.7546712 45.4500319,35.9985233 44.8280656,37.1389465 C44.4420409,37.8487534 44.4180412,38.7001837 44.7648549,39.4295949 L46.7392597,43.5819655 C45.7853528,44.7274587 44.7303764,45.784057 43.5831191,46.7368883 L39.4311564,44.764977 C38.7006841,44.4148056 37.851903,44.4428599 37.1410362,44.8275076 C35.9988493,45.4487577 34.7542408,45.9598187 33.438647,46.3491985 C32.6645694,46.5776888 32.0466595,47.1624345 31.7765774,47.9232799 L30.2277463,52.2777765 C28.6468028,52.438666 27.3535186,52.438666 25.7725751,52.2777765 L24.223744,47.9232799 C23.9533239,47.1641245 23.3354139,46.5773507 22.5616744,46.3491985 C21.2454046,45.9598187 19.999782,45.4487577 18.8592852,44.8275076 C18.1484184,44.4398179 17.2979471,44.4151436 16.569165,44.764977 L12.4172023,46.7385783 C11.2709591,45.783719 10.2159827,44.7288107 9.26106169,43.5819655 L11.2354665,39.4295949 C11.5822802,38.6998457 11.5582805,37.8487534 11.1722558,37.1389465 C10.5519797,36.0019034 10.0398716,34.7563612 9.64979059,33.4384863 C9.42060955,32.6644587 8.83481201,32.0465887 8.0745935,31.7772001 L3.7215059,30.2291449 C3.6393658,29.4372032 3.59981686,28.7074541 3.59981686,28.0010272 C3.59981686,27.2946003 3.6393658,26.5665411 3.7215059,25.7745994 L8.07560757,24.2251923 C8.83548806,23.9558036 9.42060955,23.3379336 9.64979059,22.563906 C10.0391955,21.2494112 10.5513036,20.003869 11.1722558,18.8617558 C11.5582805,18.1536389 11.5822802,17.3005186 11.2354665,16.5727975 L9.26106169,12.4204269 C10.2166587,11.2735817 11.2716352,10.2169833 12.4172023,9.26381401 L16.5708551,11.2374153 C17.2979471,11.5875867 18.1517986,11.5595324 18.8609753,11.1748847 C20.0007961,10.5536346 21.2454046,10.0425736 22.5616744,9.65319381 C23.335752,9.42470358 23.9536619,8.83826785 24.223744,8.07911243 L25.7725751,3.72461586 C27.3386455,3.56203627 28.6342958,3.56203627 30.2277463,3.72461586 L31.7765774,8.07911243 C32.0469975,8.83826785 32.6649075,9.42504158 33.438647,9.65319381 C34.7549168,10.0425736 36.0005394,10.5536346 37.1410362,11.1748847 C37.851903,11.5625745 38.7006841,11.5872487 39.4311564,11.2374153 L43.5831191,9.26381401 C44.7286862,10.2169833 45.7836627,11.2735817 46.7392597,12.4204269 L44.7648549,16.5727975 C44.4180412,17.3008566 44.4420409,18.1536389 44.8280656,18.8617558 C45.4510459,20.007249 45.962816,21.2511012 46.3505308,22.562216 C46.5797118,23.3379336 47.1648333,23.9558036 47.9257279,24.2251923 L52.2788155,25.7732474 C52.3609556,26.5651891 52.4005045,27.2949383 52.4005045,28.0013652 C52.4005045,28.7077921 52.3609556,29.4372032 52.2788155,30.2291449 Z" id="Shape"></path>
                                <path d="M28,17 C21.934743,17 17,21.9344248 17,28 C17,34.0655752 21.9344248,39 28,39 C34.0655752,39 39,34.0655752 39,28 C39,21.9344248 34.065257,17 28,17 Z M28,34.780987 C24.2610641,34.780987 21.219013,31.7389359 21.219013,28 C21.219013,24.2610641 24.2610641,21.219013 28,21.219013 C31.7389359,21.219013 34.780987,24.2610641 34.780987,28 C34.780987,31.7389359 31.7389359,34.780987 28,34.780987 Z" id="Shape"></path>
                            </g>
                        </g>
                    </g>
                </g>
            </g>
        </g>
    </g>
</svg>