<?xml version="1.0" encoding="UTF-8"?>
<svg width="120px" height="120px" viewBox="0 0 120 120" version="1.1" xmlns="http://www.w3.org/2000/svg" xmlns:xlink="http://www.w3.org/1999/xlink">
    <!-- Generator: Sketch 46.2 (44496) - http://www.bohemiancoding.com/sketch -->
    <title>icon</title>
    <desc>Created with Sketch.</desc>
    <defs></defs>
    <g id="Landing-page" stroke="none" stroke-width="1" fill="none" fill-rule="evenodd">
        <g transform="translate(-1020.000000, -2600.000000)" id="Features">
            <g transform="translate(220.000000, 860.000000)">
                <g id="Benefit-4" transform="translate(300.000000, 1720.000000)">
                    <g transform="translate(500.000000, 20.000000)" id="icon">
                        <g>
                            <circle id="Oval" fill="#FFFFFF" cx="60" cy="60" r="60"></circle>
                            <g id="exchange" transform="translate(32.000000, 32.000000)">
                                <circle id="Oval-3" stroke="#4FA3FF" stroke-width="4.5" cx="28" cy="28" r="25.75"></circle>
                                <path d="M35.2267884,29.1757301 C34.7111111,28.3171962 34.0733638,27.6838949 33.3144597,27.2756705 C32.5555556,26.8682254 31.7315068,26.5119057 30.8438356,26.2059322 C29.9561644,25.9001146 29.1246575,25.660386 28.3506849,25.4856553 C27.5761035,25.3110805 26.9260274,25.0635584 26.4,24.7429331 C25.8739726,24.4230871 25.6109589,24.015642 25.6109589,23.5202861 C25.6109589,23.0249301 25.8739726,22.5739972 26.4,22.1663962 C26.9260274,21.7587952 27.6856925,21.5547609 28.6794521,21.5547609 C29.5849315,21.5547609 30.5567732,21.7421171 31.5945205,22.1158942 C32.6316591,22.4904506 33.2671233,22.6770275 33.5013699,22.6770275 C34.0855403,22.6770275 34.5753425,22.3403475 34.969863,21.6669876 C35.3643836,20.9936277 35.5616438,20.4030349 35.5616438,19.8938064 C35.5616438,19.0856187 34.8528158,18.3976069 33.4356164,17.828836 C32.6135464,17.499482 31.7231355,17.2683262 30.7684932,17.1297575 L30.7684932,13.3382112 C30.7684932,12.0468253 29.7461187,11 28.4852359,11 C27.2242009,11 26.2019787,12.0469812 26.2019787,13.3382112 L26.2019787,17.1840004 C24.6745814,17.4761014 23.4829528,18.076514 22.6299848,18.9863293 C21.3730594,20.3260349 20.7450533,21.9246413 20.7450533,23.7819924 C20.7450533,25.1216981 21.1025875,26.2208958 21.8191781,27.0794297 C22.5348554,27.9381195 23.4041096,28.5497547 24.4275495,28.913712 C25.4502283,29.2776693 26.4659056,29.5905011 27.474277,29.8523633 C28.4826484,30.1146931 29.34414,30.4491908 30.0605784,30.8567918 C30.7762557,31.2650163 31.134551,31.8178884 31.134551,32.5163435 C31.134551,33.76845 30.0550989,34.3939577 27.8961948,34.3939577 C26.8016743,34.3939577 25.85586,34.2376198 25.0570776,33.9240086 C24.2584475,33.6103975 23.6152207,33.3039564 23.1275495,33.0037501 C22.6392694,32.7035438 22.2322679,32.5534406 21.9076104,32.5534406 C21.4048706,32.5534406 20.961035,32.8452299 20.5767123,33.4289644 C20.1917808,34.012543 20,34.5736762 20,35.1123642 C20,36.1301976 20.7738204,37.0280108 22.3232877,37.8059597 C23.4467275,38.3702104 24.7403349,38.729024 26.2021309,38.8839591 L26.2021309,42.6617888 C26.2021309,43.9531747 27.2245053,45 28.4853881,45 C29.7462709,45 30.7686454,43.9530188 30.7686454,42.6617888 L30.7686454,38.6735341 C31.9996956,38.3862651 33.0357686,37.8930913 33.8739726,37.190116 C35.291172,36.0017604 36,34.3710448 36,32.2982808 C36,31.0751662 35.7418569,30.034264 35.2267884,29.1757301 Z" id="Shape" fill="#4FA3FF" fill-rule="nonzero"></path>
                            </g>
                        </g>
                    </g>
                </g>
            </g>
        </g>
    </g>
</svg>