<?xml version="1.0" encoding="UTF-8" standalone="no"?>
<svg
   xmlns:dc="http://purl.org/dc/elements/1.1/"
   xmlns:cc="http://creativecommons.org/ns#"
   xmlns:rdf="http://www.w3.org/1999/02/22-rdf-syntax-ns#"
   xmlns:svg="http://www.w3.org/2000/svg"
   xmlns="http://www.w3.org/2000/svg"
   xmlns:xlink="http://www.w3.org/1999/xlink"
   xmlns:sodipodi="http://sodipodi.sourceforge.net/DTD/sodipodi-0.dtd"
   xmlns:inkscape="http://www.inkscape.org/namespaces/inkscape"
   width="618"
   height="612"
   viewBox="0 0 618 612"
   version="1.1"
   id="svg5318"
   sodipodi:docname="slide-3.svg"
   inkscape:version="0.92.1 r15371">
  <metadata
     id="metadata5322">
    <rdf:RDF>
      <cc:Work
         rdf:about="">
        <dc:format>image/svg+xml</dc:format>
        <dc:type
           rdf:resource="http://purl.org/dc/dcmitype/StillImage" />
        <dc:title>Illustration 3</dc:title>
      </cc:Work>
    </rdf:RDF>
  </metadata>
  <sodipodi:namedview
     pagecolor="#ffffff"
     bordercolor="#666666"
     borderopacity="1"
     objecttolerance="10"
     gridtolerance="10"
     guidetolerance="10"
     inkscape:pageopacity="0"
     inkscape:pageshadow="2"
     inkscape:window-width="2560"
     inkscape:window-height="1376"
     id="namedview5320"
     showgrid="false"
     inkscape:zoom="2.1814013"
     inkscape:cx="148.44076"
     inkscape:cy="492.99406"
     inkscape:window-x="0"
     inkscape:window-y="27"
     inkscape:window-maximized="1"
     inkscape:current-layer="svg5318" />
  <!-- Generator: Sketch 46.2 (44496) - http://www.bohemiancoding.com/sketch -->
  <title
     id="title5283">Illustration 3</title>
  <desc
     id="desc5285">Created with Sketch.</desc>
  <defs
     id="defs5302">
    <linearGradient
       x1="189.2899"
       y1="264.82378"
       x2="20.529694"
       y2="678.1951"
       id="linearGradient-1"
       gradientTransform="scale(1.2636041,0.7913871)"
       gradientUnits="userSpaceOnUse">
      <stop
         stop-color="#FAD961"
         offset="0%"
         id="stop5287" />
      <stop
         stop-color="#F76B1C"
         offset="100%"
         id="stop5289" />
    </linearGradient>
    <linearGradient
       x1="48.033886"
       y1="407.59939"
       x2="304.24301"
       y2="19.060927"
       id="linearGradient-2"
       gradientTransform="scale(1.3299529,0.7519063)"
       gradientUnits="userSpaceOnUse">
      <stop
         stop-color="#33FFBB"
         offset="0%"
         id="stop5292" />
      <stop
         stop-color="#00CD77"
         offset="100%"
         id="stop5294" />
    </linearGradient>
    <linearGradient
       x1="0.5001179"
       y1="-0.28813821"
       x2="0.5001179"
       y2="0.86426216"
       id="linearGradient-3">
      <stop
         stop-color="#43E9FF"
         offset="0%"
         id="stop5297" />
      <stop
         stop-color="#4FA3FF"
         offset="100%"
         id="stop5299" />
    </linearGradient>
    <linearGradient
       inkscape:collect="always"
       xlink:href="#linearGradient-3"
       id="linearGradient6533"
       x1="283.21337"
       y1="-163.17071"
       x2="283.21337"
       y2="489.42579"
       gradientTransform="scale(0.92531571,1.0807122)"
       gradientUnits="userSpaceOnUse" />
    <linearGradient
       inkscape:collect="always"
       xlink:href="#linearGradient-3"
       id="linearGradient6535"
       x1="283.13964"
       y1="-97.824556"
       x2="283.13964"
       y2="459.99437"
       gradientTransform="scale(0.92552502,1.0804678)"
       gradientUnits="userSpaceOnUse" />
    <linearGradient
       inkscape:collect="always"
       xlink:href="#linearGradient-3"
       id="linearGradient6537"
       x1="283.5256"
       y1="-33.65086"
       x2="283.5256"
       y2="430.54625"
       gradientTransform="scale(0.92599744,1.0799166)"
       gradientUnits="userSpaceOnUse" />
    <linearGradient
       inkscape:collect="always"
       xlink:href="#linearGradient-3"
       id="linearGradient6539"
       x1="283.21337"
       y1="-163.17071"
       x2="283.21337"
       y2="489.42579"
       gradientTransform="scale(0.92531571,1.0807122)"
       gradientUnits="userSpaceOnUse" />
    <linearGradient
       inkscape:collect="always"
       xlink:href="#linearGradient-1"
       id="linearGradient6331"
       gradientUnits="userSpaceOnUse"
       gradientTransform="matrix(1.2636041,0,0,0.7913871,126,89)"
       x1="189.2899"
       y1="264.82378"
       x2="20.529694"
       y2="678.1951" />
    <linearGradient
       inkscape:collect="always"
       xlink:href="#linearGradient-2"
       id="linearGradient6333"
       gradientUnits="userSpaceOnUse"
       gradientTransform="matrix(1.3299529,0,0,0.7519063,126,89)"
       x1="48.033886"
       y1="407.59939"
       x2="304.24301"
       y2="19.060927" />
  </defs>
  <g
     id="all"
     inkscape:label="#g4522"
     transform="translate(-3.0000003,1.275e-6)">
    <path
       id="groupYellow"
       d="m 182.98351,304.6087 0.41211,0.3487 12.35123,-14.56489 h 134.02582 l 9.60466,13.60958 v 0.60661 h 0.42811 l 0.10558,0.1496 0.21246,-0.1496 H 499 v 99.01539 c 0.002,17.74473 -9.45063,34.14226 -24.79632,43.01462 l -136.90736,70.70775 c -15.34402,8.87139 -34.24863,8.87139 -49.59264,0 L 150.79632,446.63871 C 135.45063,437.76635 125.99806,421.36882 126,403.62409 V 304.6087 Z"
       inkscape:connector-curvature="0"
       style="fill:url(#linearGradient6331);fill-rule:nonzero;stroke:none;stroke-width:1" />
    <path
       inkscape:label="#Path-2"
       id="groupGreen"
       d="M 180.25678,299.88043 H 126 v -90.50452 c -0.002,-17.74473 9.45063,-34.14226 24.79632,-43.01462 L 287.70368,95.653544 c 15.34401,-8.871392 34.24862,-8.871392 49.59264,0 l 136.90736,70.707746 c 15.34569,8.87236 24.79826,25.26989 24.79632,43.01462 v 90.50452 H 343.41829 L 332.71815,284.7186 H 193.11423 Z"
       inkscape:connector-curvature="0"
       style="fill:url(#linearGradient6333);fill-rule:evenodd;stroke:none;stroke-width:1" />
    <g
       inkscape:label="#icon"
       transform="translate(50)"
       id="groupBlue"
       style="fill:url(#linearGradient6539);fill-rule:nonzero;stroke:none;stroke-width:1">
      <path
         d="M 489.16549,108.83934 296.83451,9.3608479 c -21.55567,-12.4811306 -48.11335,-12.4811306 -69.66902,0 L 34.834512,108.83934 C 13.276484,121.32183 -0.0027215,144.39146 4.1836634e-7,169.35645 v 273.2871 C -0.0027215,467.60854 13.276484,490.67817 34.834512,503.16066 l 192.330978,99.47849 c 21.55567,12.48113 48.11335,12.48113 69.66902,0 L 489.16549,503.16066 C 510.72352,490.67817 524.00272,467.60854 524,442.64355 v -273.2871 c 0.003,-24.96499 -13.27648,-48.03462 -34.83451,-60.51711 z"
         id="base-copy-2"
         inkscape:connector-curvature="0"
         style="opacity:0.05;fill:url(#linearGradient6533)" />
      <path
         d="M 456.21782,138.01139 291.78218,52.999548 c -18.42928,-10.666064 -41.13508,-10.666064 -59.56436,0 L 67.782178,138.01139 C 49.350887,148.67862 37.997673,168.39335 38,189.72781 v 233.54438 c -0.0023,21.33446 11.350887,41.04919 29.782178,51.71642 l 164.435642,85.01184 c 18.42928,10.66607 41.13508,10.66607 59.56436,0 L 456.21782,474.98861 C 474.64911,464.32138 486.00233,444.60665 486,423.27219 V 189.72781 c 0.002,-21.33446 -11.35089,-41.04919 -29.78218,-51.71642 z"
         id="base-copy"
         inkscape:connector-curvature="0"
         style="opacity:0.0965806;fill:url(#linearGradient6535)" />
      <path
         d="M 424.20368,166.36129 287.29632,95.653544 c -15.34401,-8.871392 -34.24863,-8.871392 -49.59264,0 L 100.79632,166.36129 C 85.450627,175.23365 75.998063,191.63118 76,209.37591 v 194.24818 c -0.0019,17.74473 9.450627,34.14226 24.79632,43.01462 l 136.90736,70.70775 c 15.34401,8.87139 34.24863,8.87139 49.59264,0 L 424.20368,446.63871 C 439.54937,437.76635 449.00194,421.36882 449,403.62409 V 209.37591 c 0.002,-17.74473 -9.45063,-34.14226 -24.79632,-43.01462 z"
         id="base"
         inkscape:connector-curvature="0"
         style="fill:url(#linearGradient6537)" />
    </g>
    <path
       inkscape:label="#path5311"
       d="M 391.81788,322.56837 435,389 h -39.39653 l -37.98795,-57.49484 -15.09834,-23.02434 -5.45829,-8.1884 h 16.33086 c 23.06568,-1.18863 33.76217,-10.60969 33.76217,-29.18765 0.22765,-8.20001 -3.0744,-16.1034 -9.06781,-21.70364 -6.11857,-5.54697 -14.92226,-7.61608 -29.88854,-7.61608 h -40.32093 l -39.00036,61.85317 54.18674,85.22971 h -39.61663 l -15.7146,-25.26955 -18.44374,-29.58387 -34.37843,54.85342 H 175.73118 L 214.20333,328.20339 266.71737,245.87924 289.16679,210 h 58.32448 c 25.0025,0.22012 40.18887,4.62248 52.82217,15.23217 13.40677,11.62843 21.02118,28.56562 20.82074,46.31284 0.34045,21.10211 -10.91524,40.692 -29.3163,51.02336 z M 210.43058,210 236.29032,251.16221 216.39821,281.97884 171,210 Z"
       id="groupWhite"
       inkscape:connector-curvature="0"
       style="fill:#ffffff;fill-rule:nonzero;stroke:none;stroke-width:1" />
  </g>
</svg>
